<svg xmlns="http://www.w3.org/2000/svg" width="1000" height="1221" viewBox="0 0 1000 1221" font-family="-apple-system, BlinkMacSystemFont, 'Segoe UI', 'Noto Sans', Helvetica, Arial, sans-serif" role="img"><title>Where more reasoning effort pays, per quota pool and task family</title><rect width="100%" height="100%" fill="#ffffff"/><text x="32.0" y="46.0" font-size="22" font-weight="600" fill="#1f2328" text-anchor="start">Where more effort pays, and where it stops</text><text x="32.0" y="74.0" font-size="13.5" font-weight="400" fill="#59636e" text-anchor="start">Each line is one model; each dot is an effort level, larger for more effort. Up and to the left is better.</text><text x="32.0" y="94.0" font-size="13.5" font-weight="400" fill="#59636e" text-anchor="start">Across: API cost per task, log scale. Up: score. Filled: worth trying. Hollow: a cheaper setting scores as well.</text><text x="32.0" y="140.0" font-size="17" font-weight="600" fill="#1f2328" text-anchor="start">Claude</text><text x="476.0" y="140.0" font-size="10.5" font-weight="400" fill="#8c959f" text-anchor="end">$ per M tokens, in / out</text><line x1="32.0" y1="179.5" x2="50.0" y2="179.5" stroke="#ff9362" stroke-width="3" stroke-linecap="round"/><text x="60.0" y="184.0" font-size="13.5" font-weight="600" fill="#1f2328" text-anchor="start">Haiku</text><text x="107.2" y="184.0" font-size="12.5" font-weight="400" fill="#59636e" text-anchor="start">Claude Haiku 4.5</text><text x="476.0" y="184.0" font-size="12" font-weight="400" fill="#59636e" text-anchor="end">$1 / $5</text><text x="60.0" y="199.0" font-size="11.5" font-weight="400" fill="#8c959f" text-anchor="start">Fastest; near-frontier intelligence · no effort curves</text><line x1="32.0" y1="215.5" x2="50.0" y2="215.5" stroke="#e76937" stroke-width="3" stroke-linecap="round"/><text x="60.0" y="220.0" font-size="13.5" font-weight="600" fill="#1f2328" text-anchor="start">Sonnet</text><text x="115.0" y="220.0" font-size="12.5" font-weight="400" fill="#59636e" text-anchor="start">Claude Sonnet 5</text><text x="476.0" y="220.0" font-size="12" font-weight="400" fill="#59636e" text-anchor="end">$2 / $10</text><text x="60.0" y="235.0" font-size="11.5" font-weight="400" fill="#8c959f" text-anchor="start">Best mix of speed and intelligence · no effort curves</text><line x1="32.0" y1="251.5" x2="50.0" y2="251.5" stroke="#b93e00" stroke-width="3" stroke-linecap="round"/><text x="60.0" y="256.0" font-size="13.5" font-weight="600" fill="#1f2328" text-anchor="start">Opus</text><text x="99.3" y="256.0" font-size="12.5" font-weight="400" fill="#59636e" text-anchor="start">Claude Opus 5.5</text><text x="476.0" y="256.0" font-size="12" font-weight="400" fill="#59636e" text-anchor="end">$4 / $20</text><text x="60.0" y="271.0" font-size="11.5" font-weight="400" fill="#8c959f" text-anchor="start">Long agentic coding and knowledge work</text><line x1="32.0" y1="287.5" x2="50.0" y2="287.5" stroke="#8b0500" stroke-width="3" stroke-linecap="round"/><text x="60.0" y="292.0" font-size="13.5" font-weight="600" fill="#1f2328" text-anchor="start">Fable</text><text x="107.2" y="292.0" font-size="12.5" font-weight="400" fill="#59636e" text-anchor="start">Claude Fable 5.1</text><text x="476.0" y="292.0" font-size="12" font-weight="400" fill="#59636e" text-anchor="end">$10 / $50</text><text x="60.0" y="307.0" font-size="11.5" font-weight="400" fill="#8c959f" text-anchor="start">Demanding reasoning, long-horizon agents</text><text x="524.0" y="140.0" font-size="17" font-weight="600" fill="#1f2328" text-anchor="start">Codex</text><text x="968.0" y="140.0" font-size="10.5" font-weight="400" fill="#8c959f" text-anchor="end">$ per M tokens, in / out</text><line x1="524.0" y1="179.5" x2="542.0" y2="179.5" stroke="#72c0ff" stroke-width="3" stroke-linecap="round"/><text x="552.0" y="184.0" font-size="13.5" font-weight="600" fill="#1f2328" text-anchor="start">Luna</text><text x="591.3" y="184.0" font-size="12.5" font-weight="400" fill="#59636e" text-anchor="start">GPT-6 Luna</text><text x="968.0" y="184.0" font-size="12" font-weight="400" fill="#59636e" text-anchor="end">$0.1 / $0.5</text><text x="552.0" y="199.0" font-size="11.5" font-weight="400" fill="#8c959f" text-anchor="start">Focused, high-volume tasks</text><line x1="524.0" y1="215.5" x2="542.0" y2="215.5" stroke="#4895f5" stroke-width="3" stroke-linecap="round"/><text x="552.0" y="220.0" font-size="13.5" font-weight="600" fill="#1f2328" text-anchor="start">Terra</text><text x="599.1" y="220.0" font-size="12.5" font-weight="400" fill="#59636e" text-anchor="start">GPT-5.6 Terra</text><text x="968.0" y="220.0" font-size="12" font-weight="400" fill="#59636e" text-anchor="end">$2 / $12</text><text x="552.0" y="235.0" font-size="11.5" font-weight="400" fill="#8c959f" text-anchor="start">Balances intelligence and cost · no effort curves</text><line x1="524.0" y1="251.5" x2="542.0" y2="251.5" stroke="#1a6bc8" stroke-width="3" stroke-linecap="round"/><text x="552.0" y="256.0" font-size="13.5" font-weight="600" fill="#1f2328" text-anchor="start">Sol</text><text x="583.5" y="256.0" font-size="12.5" font-weight="400" fill="#59636e" text-anchor="start">GPT-6 Sol</text><text x="968.0" y="256.0" font-size="12" font-weight="400" fill="#59636e" text-anchor="end">$2 / $10</text><text x="552.0" y="271.0" font-size="11.5" font-weight="400" fill="#8c959f" text-anchor="start">Complex coding and agentic workflows</text><line x1="524.0" y1="287.5" x2="542.0" y2="287.5" stroke="#00429c" stroke-width="3" stroke-linecap="round"/><text x="552.0" y="292.0" font-size="13.5" font-weight="600" fill="#1f2328" text-anchor="start">Astra</text><text x="599.1" y="292.0" font-size="12.5" font-weight="400" fill="#59636e" text-anchor="start">GPT-6 Astra</text><text x="968.0" y="292.0" font-size="12" font-weight="400" fill="#59636e" text-anchor="end">$10 / $50</text><text x="552.0" y="307.0" font-size="11.5" font-weight="400" fill="#8c959f" text-anchor="start">Most capable; hardest end-to-end work</text><line x1="32.0" y1="325.0" x2="968.0" y2="325.0" stroke="#d1d9e0" stroke-width="1" stroke-linecap="round"/><text x="32.0" y="351.0" font-size="15" font-weight="600" fill="#1f2328" text-anchor="start">Coding</text><text x="32.0" y="373.0" font-size="11" font-weight="400" fill="#8c959f" text-anchor="start">Terminal-Bench 4.0 · vendor table, grade C · 4 more in the tables</text><line x1="78.0" y1="539.5" x2="412.0" y2="539.5" stroke="#eef1f4" stroke-width="1" stroke-linecap="round"/><text x="70.0" y="543.0" font-size="10.5" font-weight="400" fill="#8c959f" text-anchor="end">40%</text><line x1="78.0" y1="489.3" x2="412.0" y2="489.3" stroke="#eef1f4" stroke-width="1" stroke-linecap="round"/><text x="70.0" y="492.8" font-size="10.5" font-weight="400" fill="#8c959f" text-anchor="end">50%</text><line x1="78.0" y1="439.1" x2="412.0" y2="439.1" stroke="#eef1f4" stroke-width="1" stroke-linecap="round"/><text x="70.0" y="442.6" font-size="10.5" font-weight="400" fill="#8c959f" text-anchor="end">60%</text><line x1="78.0" y1="561.0" x2="412.0" y2="561.0" stroke="#d1d9e0" stroke-width="1" stroke-linecap="round"/><line x1="188.6" y1="561.0" x2="188.6" y2="565.0" stroke="#d1d9e0" stroke-width="1" stroke-linecap="round"/><text x="188.6" y="578.0" font-size="10.5" font-weight="400" fill="#8c959f" text-anchor="middle">$3</text><line x1="320.8" y1="561.0" x2="320.8" y2="565.0" stroke="#d1d9e0" stroke-width="1" stroke-linecap="round"/><text x="320.8" y="578.0" font-size="10.5" font-weight="400" fill="#8c959f" text-anchor="middle">$10</text><path d="M95.9,547.0 L186.3,451.2 L216.8,418.0 L287.0,407.0 L333.6,415.0" fill="none" stroke="#b93e00" stroke-width="2" stroke-linejoin="round" stroke-linecap="round"/><circle cx="95.9" cy="547.0" r="3.4" fill="#b93e00" stroke="#ffffff" stroke-width="1.5"/><circle cx="186.3" cy="451.2" r="4.2" fill="#b93e00" stroke="#ffffff" stroke-width="1.5"/><circle cx="216.8" cy="418.0" r="4.9" fill="#b93e00" stroke="#ffffff" stroke-width="1.5"/><circle cx="287.0" cy="407.0" r="5.7" fill="#ffffff" stroke="#b93e00" stroke-width="1.6"/><circle cx="333.6" cy="415.0" r="6.4" fill="#ffffff" stroke="#b93e00" stroke-width="1.6"/><path d="M259.0,538.5 L293.5,522.4 L326.1,492.3 L371.0,482.8 L394.1,460.2" fill="none" stroke="#8b0500" stroke-width="2" stroke-linejoin="round" stroke-linecap="round"/><circle cx="259.0" cy="538.5" r="3.4" fill="#ffffff" stroke="#8b0500" stroke-width="1.6"/><circle cx="293.5" cy="522.4" r="4.2" fill="#ffffff" stroke="#8b0500" stroke-width="1.6"/><circle cx="326.1" cy="492.3" r="4.9" fill="#ffffff" stroke="#8b0500" stroke-width="1.6"/><circle cx="371.0" cy="482.8" r="5.7" fill="#ffffff" stroke="#8b0500" stroke-width="1.6"/><circle cx="394.1" cy="460.2" r="6.4" fill="#ffffff" stroke="#8b0500" stroke-width="1.6"/><text x="347.0" y="419.0" font-size="11.5" font-weight="600" fill="#1f2328" text-anchor="start" stroke="#ffffff" stroke-width="4" stroke-linejoin="round" paint-order="stroke">Opus</text><text x="407.5" y="464.2" font-size="11.5" font-weight="600" fill="#1f2328" text-anchor="start" stroke="#ffffff" stroke-width="4" stroke-linejoin="round" paint-order="stroke">Fable</text><text x="524.0" y="373.0" font-size="11" font-weight="400" fill="#8c959f" text-anchor="start">DeepSWE v1.1 · vendor table, grade C · 4 more in the tables</text><line x1="570.0" y1="551.7" x2="904.0" y2="551.7" stroke="#eef1f4" stroke-width="1" stroke-linecap="round"/><text x="562.0" y="555.2" font-size="10.5" font-weight="400" fill="#8c959f" text-anchor="end">0%</text><line x1="570.0" y1="502.9" x2="904.0" y2="502.9" stroke="#eef1f4" stroke-width="1" stroke-linecap="round"/><text x="562.0" y="506.4" font-size="10.5" font-weight="400" fill="#8c959f" text-anchor="end">25%</text><line x1="570.0" y1="454.1" x2="904.0" y2="454.1" stroke="#eef1f4" stroke-width="1" stroke-linecap="round"/><text x="562.0" y="457.6" font-size="10.5" font-weight="400" fill="#8c959f" text-anchor="end">50%</text><line x1="570.0" y1="405.3" x2="904.0" y2="405.3" stroke="#eef1f4" stroke-width="1" stroke-linecap="round"/><text x="562.0" y="408.8" font-size="10.5" font-weight="400" fill="#8c959f" text-anchor="end">75%</text><line x1="570.0" y1="561.0" x2="904.0" y2="561.0" stroke="#d1d9e0" stroke-width="1" stroke-linecap="round"/><line x1="611.2" y1="561.0" x2="611.2" y2="565.0" stroke="#d1d9e0" stroke-width="1" stroke-linecap="round"/><text x="611.2" y="578.0" font-size="10.5" font-weight="400" fill="#8c959f" text-anchor="middle">$0.01</text><line x1="656.9" y1="561.0" x2="656.9" y2="565.0" stroke="#d1d9e0" stroke-width="1" stroke-linecap="round"/><text x="656.9" y="578.0" font-size="10.5" font-weight="400" fill="#8c959f" text-anchor="middle">$0.03</text><line x1="706.8" y1="561.0" x2="706.8" y2="565.0" stroke="#d1d9e0" stroke-width="1" stroke-linecap="round"/><text x="706.8" y="578.0" font-size="10.5" font-weight="400" fill="#8c959f" text-anchor="middle">$0.1</text><line x1="752.5" y1="561.0" x2="752.5" y2="565.0" stroke="#d1d9e0" stroke-width="1" stroke-linecap="round"/><text x="752.5" y="578.0" font-size="10.5" font-weight="400" fill="#8c959f" text-anchor="middle">$0.3</text><line x1="802.5" y1="561.0" x2="802.5" y2="565.0" stroke="#d1d9e0" stroke-width="1" stroke-linecap="round"/><text x="802.5" y="578.0" font-size="10.5" font-weight="400" fill="#8c959f" text-anchor="middle">$1</text><line x1="848.1" y1="561.0" x2="848.1" y2="565.0" stroke="#d1d9e0" stroke-width="1" stroke-linecap="round"/><text x="848.1" y="578.0" font-size="10.5" font-weight="400" fill="#8c959f" text-anchor="middle">$3</text><line x1="898.1" y1="561.0" x2="898.1" y2="565.0" stroke="#d1d9e0" stroke-width="1" stroke-linecap="round"/><text x="898.1" y="578.0" font-size="10.5" font-weight="400" fill="#8c959f" text-anchor="middle">$10</text><path d="M587.9,547.0 L679.5,464.9 L699.5,436.0 L710.7,432.1 L739.0,421.7" fill="none" stroke="#72c0ff" stroke-width="2" stroke-linejoin="round" stroke-linecap="round"/><circle cx="587.9" cy="547.0" r="3.4" fill="#72c0ff" stroke="#ffffff" stroke-width="1.5"/><circle cx="679.5" cy="464.9" r="4.2" fill="#72c0ff" stroke="#ffffff" stroke-width="1.5"/><circle cx="699.5" cy="436.0" r="4.9" fill="#72c0ff" stroke="#ffffff" stroke-width="1.5"/><circle cx="710.7" cy="432.1" r="5.7" fill="#ffffff" stroke="#72c0ff" stroke-width="1.6"/><circle cx="739.0" cy="421.7" r="6.4" fill="#72c0ff" stroke="#ffffff" stroke-width="1.5"/><path d="M727.0,479.2 L762.3,441.1 L783.9,424.3 L802.6,421.7 L844.4,417.4" fill="none" stroke="#1a6bc8" stroke-width="2" stroke-linejoin="round" stroke-linecap="round"/><circle cx="727.0" cy="479.2" r="3.4" fill="#ffffff" stroke="#1a6bc8" stroke-width="1.6"/><circle cx="762.3" cy="441.1" r="4.2" fill="#ffffff" stroke="#1a6bc8" stroke-width="1.6"/><circle cx="783.9" cy="424.3" r="4.9" fill="#ffffff" stroke="#1a6bc8" stroke-width="1.6"/><circle cx="802.6" cy="421.7" r="5.7" fill="#ffffff" stroke="#1a6bc8" stroke-width="1.6"/><circle cx="844.4" cy="417.4" r="6.4" fill="#ffffff" stroke="#1a6bc8" stroke-width="1.6"/><path d="M821.8,420.8 L849.1,409.6 L859.2,408.7 L864.2,407.0 L886.1,408.7" fill="none" stroke="#00429c" stroke-width="2" stroke-linejoin="round" stroke-linecap="round"/><circle cx="821.8" cy="420.8" r="3.4" fill="#ffffff" stroke="#00429c" stroke-width="1.6"/><circle cx="849.1" cy="409.6" r="4.2" fill="#00429c" stroke="#ffffff" stroke-width="1.5"/><circle cx="859.2" cy="408.7" r="4.9" fill="#ffffff" stroke="#00429c" stroke-width="1.6"/><circle cx="864.2" cy="407.0" r="5.7" fill="#ffffff" stroke="#00429c" stroke-width="1.6"/><circle cx="886.1" cy="408.7" r="6.4" fill="#ffffff" stroke="#00429c" stroke-width="1.6"/><text x="899.5" y="412.7" font-size="11.5" font-weight="600" fill="#1f2328" text-anchor="start" stroke="#ffffff" stroke-width="4" stroke-linejoin="round" paint-order="stroke">Astra</text><text x="857.8" y="425.7" font-size="11.5" font-weight="600" fill="#1f2328" text-anchor="start" stroke="#ffffff" stroke-width="4" stroke-linejoin="round" paint-order="stroke">Sol</text><text x="752.4" y="438.7" font-size="11.5" font-weight="600" fill="#1f2328" text-anchor="start" stroke="#ffffff" stroke-width="4" stroke-linejoin="round" paint-order="stroke">Luna</text><line x1="32.0" y1="603.0" x2="968.0" y2="603.0" stroke="#d1d9e0" stroke-width="1" stroke-linecap="round"/><text x="32.0" y="629.0" font-size="15" font-weight="600" fill="#1f2328" text-anchor="start">Knowledge work</text><text x="32.0" y="651.0" font-size="11" font-weight="400" fill="#8c959f" text-anchor="start">GDPval-AA v2.1 · vendor table, grade C</text><line x1="78.0" y1="830.4" x2="412.0" y2="830.4" stroke="#eef1f4" stroke-width="1" stroke-linecap="round"/><text x="70.0" y="833.9" font-size="10.5" font-weight="400" fill="#8c959f" text-anchor="end">1200</text><line x1="78.0" y1="785.4" x2="412.0" y2="785.4" stroke="#eef1f4" stroke-width="1" stroke-linecap="round"/><text x="70.0" y="788.9" font-size="10.5" font-weight="400" fill="#8c959f" text-anchor="end">1400</text><line x1="78.0" y1="740.4" x2="412.0" y2="740.4" stroke="#eef1f4" stroke-width="1" stroke-linecap="round"/><text x="70.0" y="743.9" font-size="10.5" font-weight="400" fill="#8c959f" text-anchor="end">1600</text><line x1="78.0" y1="695.4" x2="412.0" y2="695.4" stroke="#eef1f4" stroke-width="1" stroke-linecap="round"/><text x="70.0" y="698.9" font-size="10.5" font-weight="400" fill="#8c959f" text-anchor="end">1800</text><line x1="78.0" y1="839.0" x2="412.0" y2="839.0" stroke="#d1d9e0" stroke-width="1" stroke-linecap="round"/><line x1="123.7" y1="839.0" x2="123.7" y2="843.0" stroke="#d1d9e0" stroke-width="1" stroke-linecap="round"/><text x="123.7" y="856.0" font-size="10.5" font-weight="400" fill="#8c959f" text-anchor="middle">$0.3</text><line x1="217.7" y1="839.0" x2="217.7" y2="843.0" stroke="#d1d9e0" stroke-width="1" stroke-linecap="round"/><text x="217.7" y="856.0" font-size="10.5" font-weight="400" fill="#8c959f" text-anchor="middle">$1</text><line x1="303.4" y1="839.0" x2="303.4" y2="843.0" stroke="#d1d9e0" stroke-width="1" stroke-linecap="round"/><text x="303.4" y="856.0" font-size="10.5" font-weight="400" fill="#8c959f" text-anchor="middle">$3</text><line x1="397.4" y1="839.0" x2="397.4" y2="843.0" stroke="#d1d9e0" stroke-width="1" stroke-linecap="round"/><text x="397.4" y="856.0" font-size="10.5" font-weight="400" fill="#8c959f" text-anchor="middle">$10</text><path d="M95.9,825.0 L205.9,745.8 L251.4,719.7 L329.9,690.9 L388.5,685.0" fill="none" stroke="#b93e00" stroke-width="2" stroke-linejoin="round" stroke-linecap="round"/><circle cx="95.9" cy="825.0" r="3.4" fill="#b93e00" stroke="#ffffff" stroke-width="1.5"/><circle cx="205.9" cy="745.8" r="4.2" fill="#b93e00" stroke="#ffffff" stroke-width="1.5"/><circle cx="251.4" cy="719.7" r="4.9" fill="#b93e00" stroke="#ffffff" stroke-width="1.5"/><circle cx="329.9" cy="690.9" r="5.7" fill="#b93e00" stroke="#ffffff" stroke-width="1.5"/><circle cx="388.5" cy="685.0" r="6.4" fill="#b93e00" stroke="#ffffff" stroke-width="1.5"/><path d="M244.5,774.1 L278.1,754.8 L313.9,736.5 L370.5,713.1 L394.1,710.0" fill="none" stroke="#8b0500" stroke-width="2" stroke-linejoin="round" stroke-linecap="round"/><circle cx="244.5" cy="774.1" r="3.4" fill="#ffffff" stroke="#8b0500" stroke-width="1.6"/><circle cx="278.1" cy="754.8" r="4.2" fill="#ffffff" stroke="#8b0500" stroke-width="1.6"/><circle cx="313.9" cy="736.5" r="4.9" fill="#ffffff" stroke="#8b0500" stroke-width="1.6"/><circle cx="370.5" cy="713.1" r="5.7" fill="#ffffff" stroke="#8b0500" stroke-width="1.6"/><circle cx="394.1" cy="710.0" r="6.4" fill="#ffffff" stroke="#8b0500" stroke-width="1.6"/><text x="401.9" y="689.0" font-size="11.5" font-weight="600" fill="#1f2328" text-anchor="start" stroke="#ffffff" stroke-width="4" stroke-linejoin="round" paint-order="stroke">Opus</text><text x="407.5" y="714.0" font-size="11.5" font-weight="600" fill="#1f2328" text-anchor="start" stroke="#ffffff" stroke-width="4" stroke-linejoin="round" paint-order="stroke">Fable</text><text x="524.0" y="651.0" font-size="11" font-weight="400" fill="#8c959f" text-anchor="start">Agents&#x27; Last Exam · vendor table, grade C · 1 more in the tables</text><line x1="570.0" y1="802.5" x2="904.0" y2="802.5" stroke="#eef1f4" stroke-width="1" stroke-linecap="round"/><text x="562.0" y="806.0" font-size="10.5" font-weight="400" fill="#8c959f" text-anchor="end">40%</text><line x1="570.0" y1="741.5" x2="904.0" y2="741.5" stroke="#eef1f4" stroke-width="1" stroke-linecap="round"/><text x="562.0" y="745.0" font-size="10.5" font-weight="400" fill="#8c959f" text-anchor="end">50%</text><line x1="570.0" y1="680.5" x2="904.0" y2="680.5" stroke="#eef1f4" stroke-width="1" stroke-linecap="round"/><text x="562.0" y="684.0" font-size="10.5" font-weight="400" fill="#8c959f" text-anchor="end">60%</text><line x1="570.0" y1="839.0" x2="904.0" y2="839.0" stroke="#d1d9e0" stroke-width="1" stroke-linecap="round"/><line x1="598.4" y1="839.0" x2="598.4" y2="843.0" stroke="#d1d9e0" stroke-width="1" stroke-linecap="round"/><text x="598.4" y="856.0" font-size="10.5" font-weight="400" fill="#8c959f" text-anchor="middle">$0.03</text><line x1="663.3" y1="839.0" x2="663.3" y2="843.0" stroke="#d1d9e0" stroke-width="1" stroke-linecap="round"/><text x="663.3" y="856.0" font-size="10.5" font-weight="400" fill="#8c959f" text-anchor="middle">$0.1</text><line x1="722.5" y1="839.0" x2="722.5" y2="843.0" stroke="#d1d9e0" stroke-width="1" stroke-linecap="round"/><text x="722.5" y="856.0" font-size="10.5" font-weight="400" fill="#8c959f" text-anchor="middle">$0.3</text><line x1="787.4" y1="839.0" x2="787.4" y2="843.0" stroke="#d1d9e0" stroke-width="1" stroke-linecap="round"/><text x="787.4" y="856.0" font-size="10.5" font-weight="400" fill="#8c959f" text-anchor="middle">$1</text><line x1="846.7" y1="839.0" x2="846.7" y2="843.0" stroke="#d1d9e0" stroke-width="1" stroke-linecap="round"/><text x="846.7" y="856.0" font-size="10.5" font-weight="400" fill="#8c959f" text-anchor="middle">$3</text><path d="M587.9,825.0 L666.1,760.8 L669.3,780.6 L668.7,754.4 L686.7,736.1" fill="none" stroke="#72c0ff" stroke-width="2" stroke-linejoin="round" stroke-linecap="round"/><circle cx="587.9" cy="825.0" r="3.4" fill="#72c0ff" stroke="#ffffff" stroke-width="1.5"/><circle cx="666.1" cy="760.8" r="4.2" fill="#72c0ff" stroke="#ffffff" stroke-width="1.5"/><circle cx="669.3" cy="780.6" r="4.9" fill="#ffffff" stroke="#72c0ff" stroke-width="1.6"/><circle cx="668.7" cy="754.4" r="5.7" fill="#ffffff" stroke="#72c0ff" stroke-width="1.6"/><circle cx="686.7" cy="736.1" r="6.4" fill="#72c0ff" stroke="#ffffff" stroke-width="1.5"/><path d="M779.6,749.6 L800.2,722.8 L810.4,725.8 L815.0,708.6 L845.4,702.7" fill="none" stroke="#1a6bc8" stroke-width="2" stroke-linejoin="round" stroke-linecap="round"/><circle cx="779.6" cy="749.6" r="3.4" fill="#ffffff" stroke="#1a6bc8" stroke-width="1.6"/><circle cx="800.2" cy="722.8" r="4.2" fill="#ffffff" stroke="#1a6bc8" stroke-width="1.6"/><circle cx="810.4" cy="725.8" r="4.9" fill="#ffffff" stroke="#1a6bc8" stroke-width="1.6"/><circle cx="815.0" cy="708.6" r="5.7" fill="#ffffff" stroke="#1a6bc8" stroke-width="1.6"/><circle cx="845.4" cy="702.7" r="6.4" fill="#ffffff" stroke="#1a6bc8" stroke-width="1.6"/><path d="M848.0,720.8 L863.6,695.0 L870.2,694.0 L878.3,690.9 L886.1,685.0" fill="none" stroke="#00429c" stroke-width="2" stroke-linejoin="round" stroke-linecap="round"/><circle cx="848.0" cy="720.8" r="3.4" fill="#ffffff" stroke="#00429c" stroke-width="1.6"/><circle cx="863.6" cy="695.0" r="4.2" fill="#ffffff" stroke="#00429c" stroke-width="1.6"/><circle cx="870.2" cy="694.0" r="4.9" fill="#ffffff" stroke="#00429c" stroke-width="1.6"/><circle cx="878.3" cy="690.9" r="5.7" fill="#ffffff" stroke="#00429c" stroke-width="1.6"/><circle cx="886.1" cy="685.0" r="6.4" fill="#ffffff" stroke="#00429c" stroke-width="1.6"/><text x="899.5" y="689.0" font-size="11.5" font-weight="600" fill="#1f2328" text-anchor="start" stroke="#ffffff" stroke-width="4" stroke-linejoin="round" paint-order="stroke">Astra</text><text x="858.8" y="706.7" font-size="11.5" font-weight="600" fill="#1f2328" text-anchor="start" stroke="#ffffff" stroke-width="4" stroke-linejoin="round" paint-order="stroke">Sol</text><text x="700.1" y="740.1" font-size="11.5" font-weight="600" fill="#1f2328" text-anchor="start" stroke="#ffffff" stroke-width="4" stroke-linejoin="round" paint-order="stroke">Luna</text><line x1="32.0" y1="881.0" x2="968.0" y2="881.0" stroke="#d1d9e0" stroke-width="1" stroke-linecap="round"/><text x="32.0" y="907.0" font-size="15" font-weight="600" fill="#1f2328" text-anchor="start">Agent workflows</text><text x="32.0" y="929.0" font-size="11" font-weight="400" fill="#8c959f" text-anchor="start">WANDR · vendor table, grade C · 2 more in the tables</text><line x1="78.0" y1="1073.0" x2="412.0" y2="1073.0" stroke="#eef1f4" stroke-width="1" stroke-linecap="round"/><text x="70.0" y="1076.5" font-size="10.5" font-weight="400" fill="#8c959f" text-anchor="end">40%</text><line x1="78.0" y1="1004.9" x2="412.0" y2="1004.9" stroke="#eef1f4" stroke-width="1" stroke-linecap="round"/><text x="70.0" y="1008.4" font-size="10.5" font-weight="400" fill="#8c959f" text-anchor="end">60%</text><line x1="78.0" y1="1117.0" x2="412.0" y2="1117.0" stroke="#d1d9e0" stroke-width="1" stroke-linecap="round"/><line x1="81.2" y1="1117.0" x2="81.2" y2="1121.0" stroke="#d1d9e0" stroke-width="1" stroke-linecap="round"/><text x="81.2" y="1134.0" font-size="10.5" font-weight="400" fill="#8c959f" text-anchor="middle">$1</text><line x1="169.5" y1="1117.0" x2="169.5" y2="1121.0" stroke="#d1d9e0" stroke-width="1" stroke-linecap="round"/><text x="169.5" y="1134.0" font-size="10.5" font-weight="400" fill="#8c959f" text-anchor="middle">$3</text><line x1="266.3" y1="1117.0" x2="266.3" y2="1121.0" stroke="#d1d9e0" stroke-width="1" stroke-linecap="round"/><text x="266.3" y="1134.0" font-size="10.5" font-weight="400" fill="#8c959f" text-anchor="middle">$10</text><line x1="354.6" y1="1117.0" x2="354.6" y2="1121.0" stroke="#d1d9e0" stroke-width="1" stroke-linecap="round"/><text x="354.6" y="1134.0" font-size="10.5" font-weight="400" fill="#8c959f" text-anchor="middle">$30</text><path d="M95.9,1103.0 L275.4,995.4 L308.4,980.0 L352.1,966.4 L373.5,963.0" fill="none" stroke="#b93e00" stroke-width="2" stroke-linejoin="round" stroke-linecap="round"/><circle cx="95.9" cy="1103.0" r="3.4" fill="#b93e00" stroke="#ffffff" stroke-width="1.5"/><circle cx="275.4" cy="995.4" r="4.2" fill="#b93e00" stroke="#ffffff" stroke-width="1.5"/><circle cx="308.4" cy="980.0" r="4.9" fill="#b93e00" stroke="#ffffff" stroke-width="1.5"/><circle cx="352.1" cy="966.4" r="5.7" fill="#b93e00" stroke="#ffffff" stroke-width="1.5"/><circle cx="373.5" cy="963.0" r="6.4" fill="#ffffff" stroke="#b93e00" stroke-width="1.6"/><path d="M334.1,993.7 L347.4,989.6 L363.8,982.1 L383.2,978.7 L394.1,975.3" fill="none" stroke="#8b0500" stroke-width="2" stroke-linejoin="round" stroke-linecap="round"/><circle cx="334.1" cy="993.7" r="3.4" fill="#ffffff" stroke="#8b0500" stroke-width="1.6"/><circle cx="347.4" cy="989.6" r="4.2" fill="#ffffff" stroke="#8b0500" stroke-width="1.6"/><circle cx="363.8" cy="982.1" r="4.9" fill="#ffffff" stroke="#8b0500" stroke-width="1.6"/><circle cx="383.2" cy="978.7" r="5.7" fill="#ffffff" stroke="#8b0500" stroke-width="1.6"/><circle cx="394.1" cy="975.3" r="6.4" fill="#ffffff" stroke="#8b0500" stroke-width="1.6"/><text x="386.9" y="967.0" font-size="11.5" font-weight="600" fill="#1f2328" text-anchor="start" stroke="#ffffff" stroke-width="4" stroke-linejoin="round" paint-order="stroke">Opus</text><text x="407.5" y="980.0" font-size="11.5" font-weight="600" fill="#1f2328" text-anchor="start" stroke="#ffffff" stroke-width="4" stroke-linejoin="round" paint-order="stroke">Fable</text><text x="524.0" y="929.0" font-size="11" font-weight="400" fill="#8c959f" text-anchor="start">AutomationBench · vendor table, grade C · 1 more in the tables</text><line x1="570.0" y1="1107.2" x2="904.0" y2="1107.2" stroke="#eef1f4" stroke-width="1" stroke-linecap="round"/><text x="562.0" y="1110.7" font-size="10.5" font-weight="400" fill="#8c959f" text-anchor="end">0%</text><line x1="570.0" y1="1037.5" x2="904.0" y2="1037.5" stroke="#eef1f4" stroke-width="1" stroke-linecap="round"/><text x="562.0" y="1041.0" font-size="10.5" font-weight="400" fill="#8c959f" text-anchor="end">20%</text><line x1="570.0" y1="967.9" x2="904.0" y2="967.9" stroke="#eef1f4" stroke-width="1" stroke-linecap="round"/><text x="562.0" y="971.4" font-size="10.5" font-weight="400" fill="#8c959f" text-anchor="end">40%</text><line x1="570.0" y1="1117.0" x2="904.0" y2="1117.0" stroke="#d1d9e0" stroke-width="1" stroke-linecap="round"/><line x1="614.8" y1="1117.0" x2="614.8" y2="1121.0" stroke="#d1d9e0" stroke-width="1" stroke-linecap="round"/><text x="614.8" y="1134.0" font-size="10.5" font-weight="400" fill="#8c959f" text-anchor="middle">$0.01</text><line x1="672.6" y1="1117.0" x2="672.6" y2="1121.0" stroke="#d1d9e0" stroke-width="1" stroke-linecap="round"/><text x="672.6" y="1134.0" font-size="10.5" font-weight="400" fill="#8c959f" text-anchor="middle">$0.03</text><line x1="736.0" y1="1117.0" x2="736.0" y2="1121.0" stroke="#d1d9e0" stroke-width="1" stroke-linecap="round"/><text x="736.0" y="1134.0" font-size="10.5" font-weight="400" fill="#8c959f" text-anchor="middle">$0.1</text><line x1="793.9" y1="1117.0" x2="793.9" y2="1121.0" stroke="#d1d9e0" stroke-width="1" stroke-linecap="round"/><text x="793.9" y="1134.0" font-size="10.5" font-weight="400" fill="#8c959f" text-anchor="middle">$0.3</text><line x1="857.2" y1="1117.0" x2="857.2" y2="1121.0" stroke="#d1d9e0" stroke-width="1" stroke-linecap="round"/><text x="857.2" y="1134.0" font-size="10.5" font-weight="400" fill="#8c959f" text-anchor="middle">$1</text><path d="M587.9,1103.0 L640.5,1074.4 L653.3,1056.7 L662.0,1063.3 L683.2,1035.1" fill="none" stroke="#72c0ff" stroke-width="2" stroke-linejoin="round" stroke-linecap="round"/><circle cx="587.9" cy="1103.0" r="3.4" fill="#72c0ff" stroke="#ffffff" stroke-width="1.5"/><circle cx="640.5" cy="1074.4" r="4.2" fill="#72c0ff" stroke="#ffffff" stroke-width="1.5"/><circle cx="653.3" cy="1056.7" r="4.9" fill="#72c0ff" stroke="#ffffff" stroke-width="1.5"/><circle cx="662.0" cy="1063.3" r="5.7" fill="#ffffff" stroke="#72c0ff" stroke-width="1.6"/><circle cx="683.2" cy="1035.1" r="6.4" fill="#72c0ff" stroke="#ffffff" stroke-width="1.5"/><path d="M768.7,1033.5 L775.0,1013.4 L781.4,998.5 L789.2,991.6 L800.5,995.9" fill="none" stroke="#1a6bc8" stroke-width="2" stroke-linejoin="round" stroke-linecap="round"/><circle cx="768.7" cy="1033.5" r="3.4" fill="#ffffff" stroke="#1a6bc8" stroke-width="1.6"/><circle cx="775.0" cy="1013.4" r="4.2" fill="#1a6bc8" stroke="#ffffff" stroke-width="1.5"/><circle cx="781.4" cy="998.5" r="4.9" fill="#1a6bc8" stroke="#ffffff" stroke-width="1.5"/><circle cx="789.2" cy="991.6" r="5.7" fill="#ffffff" stroke="#1a6bc8" stroke-width="1.6"/><circle cx="800.5" cy="995.9" r="6.4" fill="#ffffff" stroke="#1a6bc8" stroke-width="1.6"/><path d="M861.3,1001.7 L869.8,988.4 L876.4,978.0 L878.6,971.4 L886.1,963.0" fill="none" stroke="#00429c" stroke-width="2" stroke-linejoin="round" stroke-linecap="round"/><circle cx="861.3" cy="1001.7" r="3.4" fill="#ffffff" stroke="#00429c" stroke-width="1.6"/><circle cx="869.8" cy="988.4" r="4.2" fill="#ffffff" stroke="#00429c" stroke-width="1.6"/><circle cx="876.4" cy="978.0" r="4.9" fill="#ffffff" stroke="#00429c" stroke-width="1.6"/><circle cx="878.6" cy="971.4" r="5.7" fill="#ffffff" stroke="#00429c" stroke-width="1.6"/><circle cx="886.1" cy="963.0" r="6.4" fill="#ffffff" stroke="#00429c" stroke-width="1.6"/><text x="899.5" y="967.0" font-size="11.5" font-weight="600" fill="#1f2328" text-anchor="start" stroke="#ffffff" stroke-width="4" stroke-linejoin="round" paint-order="stroke">Astra</text><text x="813.9" y="999.9" font-size="11.5" font-weight="600" fill="#1f2328" text-anchor="start" stroke="#ffffff" stroke-width="4" stroke-linejoin="round" paint-order="stroke">Sol</text><text x="696.6" y="1039.1" font-size="11.5" font-weight="600" fill="#1f2328" text-anchor="start" stroke="#ffffff" stroke-width="4" stroke-linejoin="round" paint-order="stroke">Luna</text><text x="32.0" y="1178.0" font-size="11.5" font-weight="400" fill="#8c959f" text-anchor="start">Scores less than 3 points (21 Elo) apart count as a tie, and the cheaper setting wins. Filled and hollow compare settings inside the benchmark shown.</text><text x="32.0" y="1195.0" font-size="11.5" font-weight="400" fill="#8c959f" text-anchor="start">“Cheaper” means a lower API cost per task on that benchmark, which only approximates quota use. Every other benchmark and verdict: the tables under this chart.</text></svg>
